<svg fill="none" focusable="false" height="24" role="img" stroke-width="1" viewBox="0 0 24 24" width="24"><path d="M11.3106 7.45302L11.5 6.5H12.5L12.6894 7.45302C12.9261 8.6434 13.8566 9.57394 15.047 9.81056L16 10V11L15.047 11.1894C13.8566 11.4261 12.9261 12.3566 12.6894 13.547L12.5 14.5H11.5L11.3106 13.547C11.0739 12.3566 10.1434 11.4261 8.95302 11.1894L8 11V10L8.95302 9.81056C10.1434 9.57394 11.0739 8.6434 11.3106 7.45302Z" fill="currentColor"></path><path fill-rule="evenodd" clip-rule="evenodd" d="M22 10C22 18 12 24 12 24C12 24 2 18 2 10C2 4.47715 6.47715 0 12 0C17.5228 0 22 4.47715 22 10ZM20.5 10C20.5 13.3892 18.3569 16.5218 15.9393 18.9393C14.7571 20.1216 13.5694 21.0724 12.6755 21.7279C12.4236 21.9126 12.1962 22.0731 12 22.2079C11.8039 22.0731 11.5764 21.9126 11.3245 21.7279C10.4306 21.0724 9.2429 20.1216 8.06066 18.9393C5.64308 16.5218 3.5 13.3892 3.5 10C3.5 5.30558 7.30558 1.5 12 1.5C16.6944 1.5 20.5 5.30558 20.5 10Z" fill="currentColor"></path></svg>