<svg
fill="none"
height="15px"
viewBox="0 0 76 15"
width="76px"
xmlns="http://www.w3.org/2000/svg"
class="c-kHgnZT"
>
<path
  clip-rule="evenodd"
  d="M26.8531 9.92889C26.3279 11.7871 24.8535 12.9789 22.6316 12.9789C19.7837 12.9789 17.8447 11.0195 17.8447 7.96973C17.8447 4.79863 20.1877 2.51611 23.4799 2.51611C24.7928 2.51611 25.6816 2.79883 26.227 3.00085L26.5299 5.90946L26.3279 5.9499C25.1564 4.11187 24.0858 2.92015 23.1972 2.92015C22.046 2.92015 21.1167 4.35414 21.1167 6.65687C21.1167 9.56529 22.6518 10.6965 24.409 10.6965C25.3786 10.6965 26.2672 10.3532 26.7522 9.86823L26.8531 9.92889Z"
  fill="currentColor"
  fill-rule="evenodd"
></path>
<path
  clip-rule="evenodd"
  d="M34.9691 7.76776C34.9691 4.8996 34.3228 2.89999 32.8886 2.89999C31.4344 2.89999 30.8083 4.8996 30.8083 7.76776C30.8083 10.6359 31.4547 12.5951 32.8886 12.5951C34.3228 12.5951 34.9691 10.6359 34.9691 7.76776ZM27.4556 7.7677C27.4556 4.9602 29.9197 2.51611 32.8888 2.51611C35.858 2.51611 38.3222 4.9602 38.3222 7.7677C38.3222 10.5752 35.858 12.9789 32.8888 12.9789C29.9197 12.9789 27.4556 10.5752 27.4556 7.7677Z"
  fill="currentColor"
  fill-rule="evenodd"
></path>
<path
  clip-rule="evenodd"
  d="M43.5093 12.6762H39.2879V12.6358C39.611 11.6461 39.7928 10.838 39.7928 9.12133L39.7726 6.83882C39.7726 5.34435 39.4899 4.4758 38.7627 3.62746V3.58702L42.9437 2.41553V4.43536L43.0246 4.45558C43.5698 3.60724 44.6202 2.51644 46.4179 2.51644C48.1953 2.51644 49.4475 3.60724 49.4475 5.32413V9.10111C49.4475 10.818 49.589 11.6461 49.9322 12.6358V12.6762H45.711V12.6358C46.0543 11.6461 46.1957 10.7776 46.1957 9.14155V5.52615C46.1957 4.67782 45.7714 4.03131 44.802 4.03131C44.0547 4.03131 43.4082 4.4758 43.0246 5.02101V9.12133C43.0246 10.7978 43.1862 11.6461 43.5093 12.6358V12.6762Z"
  fill="currentColor"
  fill-rule="evenodd"
></path>
<path
  clip-rule="evenodd"
  d="M51.5603 10.1716V3.28405H50.4292V3.10225L54.59 0.496582H54.8122V2.83957H62.0863V3.28405H54.8122V10.0908C54.8122 11.3027 55.4585 11.6865 56.2664 11.6865C56.9734 11.6865 57.3975 11.3634 57.4177 11.3431L57.4782 11.4038C57.0339 12.1915 55.9433 12.9792 54.3477 12.9792C52.7115 12.9792 51.5603 12.1915 51.5603 10.1716Z"
  fill="currentColor"
  fill-rule="evenodd"
></path>
<path
  clip-rule="evenodd"
  d="M58.4315 12.6756V12.6352C58.7547 11.6455 58.9162 10.8374 58.9162 9.12068V6.83817C58.9162 5.34371 59.0119 4.10683 58.2847 3.25831V3.21805L62.0873 2.83801V4.85897C62.9357 3.99042 63.9254 2.39466 65.6625 2.5158L65.2989 5.90914H65.198C64.693 5.22238 63.6022 4.71743 63.0973 4.71743C62.7943 4.71743 62.4511 4.95989 62.1682 5.30327V9.12068C62.1682 10.7971 62.3298 11.6455 62.653 12.6352V12.6756H58.4315Z"
  fill="currentColor"
  fill-rule="evenodd"
></path>
<path
  clip-rule="evenodd"
  d="M70.9955 11.0198V7.5788C69.5815 7.96243 68.7938 8.9595 68.7938 9.90894C68.7938 10.6966 69.2583 11.2218 70.1471 11.2218C70.4703 11.2218 70.7732 11.1409 70.9955 11.0198ZM71.0558 11.4035C70.4904 12.2316 69.5209 12.9789 68.2281 12.9789C66.9962 12.9789 65.9458 12.0825 65.9458 10.5809C65.9458 8.39928 68.7129 7.6392 70.9954 7.15446V6.09125C70.9954 4.91976 70.4904 4.35433 69.0562 4.35433C68.2686 4.35433 67.3395 4.51572 66.4305 4.89954L66.3497 4.75837C67.3193 3.58669 68.9149 2.51611 71.0963 2.51611C73.2575 2.51611 74.2474 3.58669 74.2474 5.16222V10.3532C74.2474 10.8379 74.4694 11.2622 75.1157 11.2622C75.338 11.2622 75.6207 11.2015 75.8834 11.0197L75.9238 11.1004C75.6409 11.7671 74.9339 12.9588 73.2172 12.9588C71.9851 12.9588 71.2376 12.3123 71.0558 11.4035Z"
  fill="currentColor"
  fill-rule="evenodd"
></path>
<path
  clip-rule="evenodd"
  d="M54.1685 3.19827H62.0881V2.71826H54.1685V3.19827Z"
  fill="currentColor"
  fill-rule="evenodd"
></path>
<path
  clip-rule="evenodd"
  d="M7.66541 6.98102H14.0866C14.1594 6.98102 14.2183 6.92206 14.2183 6.8493V6.65238C14.2183 6.59229 14.1777 6.53994 14.1195 6.52482C11.1083 5.75113 8.74544 3.4021 7.95266 0.394657C7.93735 0.336829 7.88501 0.296387 7.82529 0.296387H7.66541C7.59265 0.296387 7.53369 0.355349 7.53369 0.428106V6.8493C7.53369 6.92206 7.59265 6.98102 7.66541 6.98102Z"
  fill="currentColor"
  fill-rule="evenodd"
></path>
<path
  clip-rule="evenodd"
  d="M7.66541 14.432H7.86233C7.92243 14.432 7.97496 14.3914 7.98989 14.3332C8.76358 11.3221 11.1126 8.95912 14.1202 8.16634C14.1781 8.15103 14.2183 8.09869 14.2183 8.03897V7.87909C14.2183 7.80652 14.1594 7.74756 14.0866 7.74756H7.66541C7.59265 7.74756 7.53369 7.80652 7.53369 7.87909V14.3003C7.53369 14.373 7.59265 14.432 7.66541 14.432Z"
  fill="currentColor"
  fill-rule="evenodd"
></path>
<path
  clip-rule="evenodd"
  d="M6.46725 14.4322H6.62694C6.6997 14.4322 6.75866 14.3732 6.75866 14.3003V7.87928C6.75866 7.80652 6.6997 7.74756 6.62694 7.74756H0.205938C0.133181 7.74756 0.0742188 7.80652 0.0742188 7.87928V8.07601C0.0742188 8.13629 0.11485 8.18864 0.173056 8.20376C3.18409 8.97745 5.54711 11.3263 6.33988 14.3339C6.35519 14.3918 6.40735 14.4322 6.46725 14.4322Z"
  fill="currentColor"
  fill-rule="evenodd"
></path>
<path
  clip-rule="evenodd"
  d="M0.205938 6.98102H6.62694C6.6997 6.98102 6.75866 6.92206 6.75866 6.8493V0.428106C6.75866 0.355349 6.6997 0.296387 6.62694 0.296387H6.43021C6.37012 0.296387 6.31758 0.337207 6.30265 0.395413C5.52878 3.40645 3.17993 5.76946 0.1723 6.56224C0.114472 6.57736 0.0742188 6.6297 0.0742188 6.68961V6.8493C0.0742188 6.92206 0.133181 6.98102 0.205938 6.98102Z"
  fill="currentColor"
  fill-rule="evenodd"
></path>
</svg>