<svg width="200" height="200" viewBox="0 0 800 800" fill="none" xmlns="http://www.w3.org/2000/svg">
  <path fill-rule="evenodd" clip-rule="evenodd" d="M200 0C89.5431 0 0 89.5431 0 200V600C0 710.457 89.5431 800 200 800H600C710.457 800 800 710.457 800 600V200C800 89.5431 710.457 0 600 0H200ZM514 101H286C181.066 101 96 186.066 96 291V513C96 617.934 181.066 703 286 703H514C618.934 703 704 617.934 704 513V291C704 186.066 618.934 101 514 101ZM146 291C146 213.68 208.68 151 286 151H514C591.32 151 654 213.68 654 291V513C654 590.32 591.32 653 514 653H286C208.68 653 146 590.32 146 513V291ZM401 492C451.386 492 491 451.925 491 404C491 356.075 451.386 316 401 316C350.614 316 311 356.075 311 404C311 451.925 350.614 492 401 492ZM401 542C478.32 542 541 480.215 541 404C541 327.785 478.32 266 401 266C323.68 266 261 327.785 261 404C261 480.215 323.68 542 401 542ZM558 267C568.493 267 577 258.717 577 248.5C577 238.283 568.493 230 558 230C547.507 230 539 238.283 539 248.5C539 258.717 547.507 267 558 267Z" fill="url(#paint0_radial_5_6)"/>
  <defs>
  <radialGradient id="paint0_radial_5_6" cx="0" cy="0" r="1" gradientUnits="userSpaceOnUse" gradientTransform="translate(186 753) rotate(145.958) scale(1060.19 873.071)">
  <stop offset="0.06" stop-color="#FEDA75"/>
  <stop offset="0.193769" stop-color="#FCAC4A"/>
  <stop offset="0.31008" stop-color="#EE7D59"/>
  <stop offset="0.361" stop-color="#E55D64"/>
  <stop offset="0.417516" stop-color="#D62976"/>
  <stop offset="0.596" stop-color="#B62C9B"/>
  <stop offset="0.746" stop-color="#A62EAD"/>
  <stop offset="0.851" stop-color="#4F5BD5"/>
  </radialGradient>
  </defs>
  </svg>