<svg width="200" height="200" viewBox="0 0 800 800" fill="currentColor" xmlns="http://www.w3.org/2000/svg">
	<path clip-rule="evenodd" d="M63 0C28.2061 0 0 28.2061 0 63V737C0 771.794 28.2061 800 63 800H737C771.794 800 800 771.794 800 737V63C800 28.2061 771.794 0 737 0H63ZM286 229H514C547.137 229 574 255.863 574 289V512C574 545.137 547.137 572 514 572H286C252.863 572 226 545.137 226 512V289C226 255.863 252.863 229 286 229ZM196 289C196 239.294 236.294 199 286 199H514C563.706 199 604 239.294 604 289V512C604 561.706 563.706 602 514 602H286C236.294 602 196 561.706 196 512V289ZM400.5 482.889C446.459 482.889 483 446.257 483 401.945C483 357.633 446.459 321 400.5 321C354.541 321 318 357.633 318 401.945C318 446.257 354.541 482.889 400.5 482.889ZM400.5 512.889C462.632 512.889 513 463.218 513 401.945C513 340.672 462.632 291 400.5 291C338.368 291 288 340.672 288 401.945C288 463.218 338.368 512.889 400.5 512.889ZM524 291C532.284 291 539 284.284 539 276C539 267.716 532.284 261 524 261C515.716 261 509 267.716 509 276C509 284.284 515.716 291 524 291Z" fill="currentColor"/>
</svg>