<?xml version="1.0" encoding="UTF-8"?>
<svg version="1.1" xmlns="http://www.w3.org/2000/svg" width="48" height="48">
<path d="M0 0 C1.15628906 0.00607269 1.15628906 0.00607269 2.3359375 0.01226807 C3.12742187 0.01035461 3.91890625 0.00844116 4.734375 0.00646973 C6.4088574 0.00510789 8.08335035 0.00880425 9.7578125 0.01715088 C12.32576131 0.02785067 14.89301053 0.01725582 17.4609375 0.00445557 C19.08593905 0.00577716 20.71094016 0.00833956 22.3359375 0.01226807 C23.10679688 0.0082196 23.87765625 0.00417114 24.671875 0 C30.10601618 0.04797174 30.10601618 0.04797174 32.3359375 2.27789307 C32.53567483 4.97924629 32.61575323 7.57586518 32.6015625 10.27789307 C32.60443268 11.46511963 32.60443268 11.46511963 32.60736084 12.67633057 C32.60872268 14.35081296 32.60502632 16.02530592 32.59667969 17.69976807 C32.5859799 20.26771688 32.59657475 22.8349661 32.609375 25.40289307 C32.6080534 27.02789462 32.60549101 28.65289573 32.6015625 30.27789307 C32.60561096 31.04875244 32.60965942 31.81961182 32.61383057 32.61383057 C32.56585882 38.04797174 32.56585882 38.04797174 30.3359375 40.27789307 C27.63458427 40.4776304 25.03796539 40.5577088 22.3359375 40.54351807 C21.54445313 40.54543152 20.75296875 40.54734497 19.9375 40.54931641 C18.2630176 40.55067824 16.58852465 40.54698188 14.9140625 40.53863525 C12.34611369 40.52793547 9.77886447 40.53853032 7.2109375 40.55133057 C5.58593595 40.55000897 3.96093484 40.54744658 2.3359375 40.54351807 C1.17964844 40.54959076 1.17964844 40.54959076 0 40.55578613 C-5.43414118 40.50781439 -5.43414118 40.50781439 -7.6640625 38.27789307 C-7.86379983 35.57653984 -7.94387823 32.97992095 -7.9296875 30.27789307 C-7.93160095 29.48640869 -7.9335144 28.69492432 -7.93548584 27.87945557 C-7.93684768 26.20497317 -7.93315132 24.53048022 -7.92480469 22.85601807 C-7.9141049 20.28806925 -7.92469975 17.72082003 -7.9375 15.15289307 C-7.9361784 13.52789152 -7.93361601 11.9028904 -7.9296875 10.27789307 C-7.93373596 9.50703369 -7.93778442 8.73617432 -7.94195557 7.94195557 C-7.88279826 1.24073741 -6.70121815 0.0591573 0 0 Z M-3.6640625 6.27789307 C-3.97604789 9.1587723 -3.97604789 9.1587723 -3.9296875 12.52789307 C-3.93226562 13.77570557 -3.93484375 15.02351807 -3.9375 16.30914307 C-3.92976562 17.61883057 -3.92203125 18.92851807 -3.9140625 20.27789307 C-3.92179688 21.58758057 -3.92953125 22.89726807 -3.9375 24.24664307 C-3.93492188 25.49445557 -3.93234375 26.74226807 -3.9296875 28.02789307 C-3.92743164 29.17773682 -3.92517578 30.32758057 -3.92285156 31.51226807 C-3.94749926 34.41989138 -3.94749926 34.41989138 -1.6640625 36.27789307 C1.21681673 36.58987846 1.21681673 36.58987846 4.5859375 36.54351807 C5.83375 36.54609619 7.0815625 36.54867432 8.3671875 36.55133057 C9.676875 36.54359619 10.9865625 36.53586182 12.3359375 36.52789307 C14.30046875 36.53949463 14.30046875 36.53949463 16.3046875 36.55133057 C18.17640625 36.54746338 18.17640625 36.54746338 20.0859375 36.54351807 C21.81070313 36.54013428 21.81070313 36.54013428 23.5703125 36.53668213 C26.47793582 36.56132983 26.47793582 36.56132983 28.3359375 34.27789307 C28.64792289 31.39701383 28.64792289 31.39701383 28.6015625 28.02789307 C28.60414062 26.78008057 28.60671875 25.53226807 28.609375 24.24664307 C28.59777344 22.28211182 28.59777344 22.28211182 28.5859375 20.27789307 C28.59367187 18.96820557 28.60140625 17.65851807 28.609375 16.30914307 C28.60679688 15.06133057 28.60421875 13.81351807 28.6015625 12.52789307 C28.59930664 11.37804932 28.59705078 10.22820557 28.59472656 9.04351807 C28.61937426 6.13589475 28.61937426 6.13589475 26.3359375 4.27789307 C23.45505827 3.96590768 23.45505827 3.96590768 20.0859375 4.01226807 C18.838125 4.00968994 17.5903125 4.00711182 16.3046875 4.00445557 C14.995 4.01218994 13.6853125 4.01992432 12.3359375 4.02789307 C10.37140625 4.0162915 10.37140625 4.0162915 8.3671875 4.00445557 C6.49546875 4.00832275 6.49546875 4.00832275 4.5859375 4.01226807 C3.43609375 4.01452393 2.28625 4.01677979 1.1015625 4.019104 C-1.80606082 3.9944563 -1.80606082 3.9944563 -3.6640625 6.27789307 Z " fill="#FFFFFF" transform="translate(11.6640625,3.72210693359375)"/>
<path d="M0 0 C7.92 0 15.84 0 24 0 C24 7.92 24 15.84 24 24 C22.68 24 21.36 24 20 24 C19.67 19.05 19.34 14.1 19 9 C17.96359375 10.09441406 16.9271875 11.18882813 15.859375 12.31640625 C14.49025168 13.73241735 13.12042327 15.14774696 11.75 16.5625 C11.06808594 17.28630859 10.38617188 18.01011719 9.68359375 18.75585938 C9.01972656 19.43583984 8.35585938 20.11582031 7.671875 20.81640625 C6.76066895 21.76688843 6.76066895 21.76688843 5.83105469 22.73657227 C4 24 4 24 1.77050781 23.69897461 C1.18624023 23.46831299 0.60197266 23.23765137 0 23 C0.58110671 19.57245533 1.68553624 17.95461339 4.16015625 15.546875 C4.78857422 14.928125 5.41699219 14.309375 6.06445312 13.671875 C6.72380859 13.03765625 7.38316406 12.4034375 8.0625 11.75 C8.72572266 11.1003125 9.38894531 10.450625 10.07226562 9.78125 C11.70817122 8.18065172 13.35322019 6.58940813 15 5 C10.05 4.67 5.1 4.34 0 4 C0 2.68 0 1.36 0 0 Z " fill="#FFFFFF" transform="translate(12,12)"/>
</svg>
